<?xml version="1.0" encoding="utf-8"?>
<!-- Generator: Adobe Illustrator 24.1.2, SVG Export Plug-In . SVG Version: 6.00 Build 0)  -->
<svg version="1.1"
	 id="svg8" xmlns:cc="http://creativecommons.org/ns#" xmlns:dc="http://purl.org/dc/elements/1.1/" xmlns:inkscape="http://www.inkscape.org/namespaces/inkscape" xmlns:rdf="http://www.w3.org/1999/02/22-rdf-syntax-ns#" xmlns:sodipodi="http://sodipodi.sourceforge.net/DTD/sodipodi-0.dtd" xmlns:svg="http://www.w3.org/2000/svg"
	 xmlns="http://www.w3.org/2000/svg" xmlns:xlink="http://www.w3.org/1999/xlink" x="0px" y="0px" viewBox="0 0 32 32"
	 style="enable-background:new 0 0 32 32;" xml:space="preserve">
<style type="text/css">
	.st0{fill:none;}
	.st1{fill:#595959;}
	.st2{fill:#FC1717;}
</style>
<g>
	<path class="st0" d="M16,3c-5,0-9,4-9,9c0,8.7,7.9,15.6,9,16.6c1.1-0.9,9-7.8,9-16.6C25,7,21,3,16,3z M20.6,13.9
		c-0.1,0.3-0.3,0.6-0.5,0.8c-0.5,0.8-1.3,1.4-2.2,1.8C17.3,16.9,16.7,17,16,17c-2.7,0-5-2.3-5-5s2.2-5,5-5s5,2.2,5,5
		C21,12.7,20.9,13.3,20.6,13.9z"/>
	<path class="st0" d="M16,9c-1.7,0-3,1.3-3,3s1.3,3,3,3c1.7,0,3-1.3,3-3S17.7,9,16,9z"/>
	<path class="st1" d="M16,1.2C10.1,1.2,5.2,6.1,5.2,12c0,10.4,10.2,18.5,10.3,18.6c0.1,0.1,0.3,0.2,0.5,0.2c0.2,0,0.3-0.1,0.5-0.2
		c0.1-0.1,10.3-8.2,10.3-18.6C26.8,6.1,21.9,1.2,16,1.2z M16.2,28.7L16,28.9l-0.2-0.1c-1.5-1.3-9.1-8.2-9.1-16.7
		c0-5.1,4.1-9.2,9.2-9.2c5.1,0,9.3,4.1,9.3,9.2C25.3,20.6,17.7,27.4,16.2,28.7z"/>
	<path class="st1" d="M16,7.2c-2.6,0-4.7,2.1-4.7,4.7c0,1.3,0.5,2.5,1.4,3.4c0.9,0.9,2.1,1.4,3.4,1.4c1.3,0,2.5-0.5,3.4-1.4
		c0.9-0.9,1.4-2.1,1.4-3.4C20.8,9.4,18.6,7.2,16,7.2z M18.3,14.3c-0.6,0.6-1.4,0.9-2.3,0.9c-0.9,0-1.7-0.3-2.3-0.9
		c-0.6-0.6-0.9-1.4-0.9-2.3c0-1.8,1.4-3.2,3.2-3.2c1.8,0,3.3,1.5,3.3,3.2C19.3,12.9,18.9,13.7,18.3,14.3z"/>
	<path class="st2" d="M21,12c0,0.7-0.1,1.3-0.4,1.9C20.9,13.3,21,12.7,21,12z"/>
</g>
</svg>
