<svg width="31" height="31" viewBox="0 0 31 31" fill="none" xmlns="http://www.w3.org/2000/svg">
<path d="M25.7688 27.125C23.0778 27.125 20.4191 26.5386 17.7927 25.3657C15.1663 24.1929 12.7767 22.5297 10.624 20.376C8.47118 18.2224 6.80837 15.8328 5.63554 13.2073C4.46271 10.5818 3.87586 7.92308 3.875 5.23125C3.875 4.84375 4.00417 4.52083 4.2625 4.2625C4.52083 4.00417 4.84375 3.875 5.23125 3.875H10.4625C10.7639 3.875 11.033 3.97747 11.2698 4.18242C11.5066 4.38736 11.6465 4.62933 11.6896 4.90833L12.5292 9.42917C12.5722 9.77361 12.5615 10.0642 12.4969 10.301C12.4323 10.5378 12.3139 10.7424 12.1417 10.9146L9.00937 14.0792C9.43993 14.8757 9.951 15.6451 10.5426 16.3874C11.1342 17.1297 11.7856 17.8457 12.4969 18.5354C13.1642 19.2028 13.8639 19.8219 14.5958 20.3928C15.3278 20.9637 16.1028 21.4856 16.9208 21.9583L19.9562 18.9229C20.15 18.7292 20.4032 18.5841 20.7157 18.4876C21.0283 18.3912 21.3349 18.3641 21.6354 18.4062L26.0917 19.3104C26.3931 19.3965 26.6406 19.5528 26.8344 19.7793C27.0281 20.0058 27.125 20.2585 27.125 20.5375V25.7688C27.125 26.1562 26.9958 26.4792 26.7375 26.7375C26.4792 26.9958 26.1562 27.125 25.7688 27.125Z" fill="white"/>
<path d="M25.7688 27.125C23.0778 27.125 20.4191 26.5386 17.7927 25.3657C15.1663 24.1929 12.7767 22.5297 10.624 20.376C8.47118 18.2224 6.80837 15.8328 5.63554 13.2073C4.46271 10.5818 3.87586 7.92308 3.875 5.23125C3.875 4.84375 4.00417 4.52083 4.2625 4.2625C4.52083 4.00417 4.84375 3.875 5.23125 3.875H10.4625C10.7639 3.875 11.033 3.97747 11.2698 4.18242C11.5066 4.38736 11.6465 4.62933 11.6896 4.90833L12.5292 9.42917C12.5722 9.77361 12.5615 10.0642 12.4969 10.301C12.4323 10.5378 12.3139 10.7424 12.1417 10.9146L9.00937 14.0792C9.43993 14.8757 9.951 15.6451 10.5426 16.3874C11.1342 17.1297 11.7856 17.8457 12.4969 18.5354C13.1642 19.2028 13.8639 19.8219 14.5958 20.3928C15.3278 20.9637 16.1028 21.4856 16.9208 21.9583L19.9562 18.9229C20.15 18.7292 20.4032 18.5841 20.7157 18.4876C21.0283 18.3912 21.3349 18.3641 21.6354 18.4062L26.0917 19.3104C26.3931 19.3965 26.6406 19.5528 26.8344 19.7793C27.0281 20.0058 27.125 20.2585 27.125 20.5375V25.7688C27.125 26.1562 26.9958 26.4792 26.7375 26.7375C26.4792 26.9958 26.1562 27.125 25.7688 27.125Z" fill="url(#paint0_linear_103_15)"/>
<defs>
<linearGradient id="paint0_linear_103_15" x1="27.125" y1="3.875" x2="4.05766" y2="3.69517" gradientUnits="userSpaceOnUse">
<stop stop-color="#DA892B"/>
<stop offset="0.470755" stop-color="#E6A355"/>
<stop offset="1" stop-color="#DA892B"/>
</linearGradient>
</defs>
</svg>
