<svg width="31" height="30" viewBox="0 0 31 30" fill="none" xmlns="http://www.w3.org/2000/svg">
<path d="M30.1074 15C30.1074 6.71572 23.3917 0 15.1074 0C6.82314 0 0.107422 6.71572 0.107422 15C0.107422 22.4869 5.59273 28.6925 12.7637 29.8178V19.3359H8.95508V15H12.7637V11.6953C12.7637 7.93594 15.0031 5.85938 18.4294 5.85938C20.0705 5.85938 21.7871 6.15234 21.7871 6.15234V9.84375H19.8956C18.0323 9.84375 17.4512 11 17.4512 12.1862V15H21.6113L20.9463 19.3359H17.4512V29.8178C24.6222 28.6925 30.1074 22.4869 30.1074 15Z" fill="#1877F2"/>
<path d="M20.9463 19.3359L21.6113 15H17.4512V12.1862C17.4512 11 18.0322 9.84375 19.8956 9.84375H21.7871V6.15234C21.7871 6.15234 20.0705 5.85938 18.4294 5.85938C15.0031 5.85938 12.7637 7.93594 12.7637 11.6953V15H8.95508V19.3359H12.7637V29.8178C13.5273 29.9376 14.3101 30 15.1074 30C15.9048 30 16.6875 29.9376 17.4512 29.8178V19.3359H20.9463Z" fill="white"/>
</svg>
