<?xml version="1.0" encoding="utf-8"?>
<!-- Generator: Adobe Illustrator 24.1.2, SVG Export Plug-In . SVG Version: 6.00 Build 0)  -->
<svg version="1.1" id="Layer_1" xmlns="http://www.w3.org/2000/svg" xmlns:xlink="http://www.w3.org/1999/xlink" x="0px" y="0px"
	 viewBox="0 0 16 16" style="enable-background:new 0 0 16 16;" xml:space="preserve">
<style type="text/css">
	.st0{fill:#FFFFFF;}
</style>
<path class="st0" d="M14.3,11.6c0,0.2,0,0.4-0.1,0.6c-0.1,0.3-0.1,0.5-0.2,0.6c-0.1,0.3-0.5,0.6-1.1,0.9c-0.6,0.3-1.1,0.5-1.7,0.5
	c-0.2,0-0.3,0-0.5,0c-0.2,0-0.3-0.1-0.5-0.1C10.1,14.1,9.9,14,9.9,14c-0.1,0-0.3-0.1-0.5-0.2c-0.2-0.1-0.4-0.1-0.4-0.2
	c-0.6-0.2-1.1-0.5-1.6-0.7C6.6,12.5,5.8,11.8,5,11c-0.8-0.8-1.5-1.6-1.9-2.4c-0.3-0.5-0.5-1-0.7-1.6c0-0.1-0.1-0.2-0.2-0.4
	C2.1,6.4,2,6.2,2,6.1c0-0.1-0.1-0.2-0.1-0.4C1.8,5.5,1.8,5.4,1.7,5.2c0-0.2,0-0.3,0-0.5c0-0.5,0.2-1.1,0.5-1.7
	c0.3-0.6,0.6-1,0.9-1.1c0.1-0.1,0.4-0.1,0.6-0.2C4,1.7,4.2,1.7,4.4,1.7c0.1,0,0.1,0,0.2,0C4.7,1.8,4.8,2,5,2.4
	c0.1,0.1,0.2,0.3,0.3,0.5c0.1,0.2,0.2,0.4,0.3,0.6c0.1,0.2,0.2,0.3,0.3,0.5C5.9,4,5.9,4,6,4.2s0.2,0.2,0.2,0.3
	c0,0.1,0.1,0.2,0.1,0.3C6.3,4.9,6.2,5,6,5.2C5.9,5.4,5.7,5.5,5.5,5.7C5.3,5.8,5.1,6,4.9,6.2C4.8,6.3,4.7,6.5,4.7,6.6
	c0,0.1,0,0.1,0,0.2c0,0.1,0.1,0.1,0.1,0.2c0,0,0.1,0.1,0.1,0.2C5,7.3,5,7.3,5,7.3c0.5,0.8,1,1.5,1.6,2.1C7.2,10,7.9,10.5,8.7,11
	c0,0,0.1,0,0.2,0.1c0.1,0.1,0.2,0.1,0.2,0.1c0,0,0.1,0,0.2,0.1c0.1,0,0.1,0,0.2,0c0.1,0,0.2-0.1,0.4-0.3c0.2-0.2,0.3-0.4,0.5-0.6
	s0.3-0.4,0.5-0.6c0.2-0.2,0.3-0.3,0.4-0.3c0.1,0,0.2,0,0.3,0.1c0.1,0,0.2,0.1,0.3,0.2c0.1,0.1,0.2,0.1,0.2,0.2
	c0.1,0.1,0.3,0.2,0.5,0.3c0.2,0.1,0.4,0.2,0.6,0.3c0.2,0.1,0.4,0.2,0.5,0.3c0.4,0.2,0.6,0.4,0.7,0.5C14.3,11.5,14.3,11.6,14.3,11.6z
	"/>
</svg>
