<svg width="39" height="39" viewBox="0 0 39 39" fill="none" xmlns="http://www.w3.org/2000/svg">
<path d="M0 19.5C0 30.2696 8.73045 39 19.5 39C30.2696 39 39 30.2696 39 19.5C39 8.73045 30.2696 0 19.5 0C8.73045 0 0 8.73045 0 19.5Z" fill="#C05F30"/>
<path d="M26.6219 16.1467L20.3302 11.0342C19.5594 10.4084 18.441 10.4084 17.6702 11.0342L11.3794 16.1459C11.1585 16.325 11.0327 16.59 11.0327 16.8734V26.4925C11.0327 27.0092 11.4535 27.4342 11.9702 27.4342H16.1885C16.7052 27.4342 17.126 27.0092 17.126 26.4925V20.4042H20.8752V26.4925C20.8752 27.0092 21.296 27.4342 21.8127 27.4342H26.031C26.5477 27.4342 26.9685 27.0092 26.9685 26.4925V16.8734C26.9677 16.59 26.8419 16.325 26.6219 16.1467ZM26.0302 26.4975H21.8119V20.4C21.8119 19.8834 21.391 19.4675 20.8744 19.4675H17.1252C16.6085 19.4675 16.1877 19.8834 16.1877 20.4V26.4975H11.9702V16.8734L18.2619 11.7617C18.6894 11.4134 19.3119 11.4142 19.7394 11.7617L26.031 16.8734V26.4975H26.0302Z" fill="#F3F3F3"/>
</svg>
