<svg width="31" height="30" viewBox="0 0 31 30" fill="none" xmlns="http://www.w3.org/2000/svg">
<g clip-path="url(#clip0_122_106)">
<path d="M15.4644 30C7.18135 30 0.464355 23.283 0.464355 15C0.464355 6.717 7.18135 0 15.4644 0C23.7474 0 30.4644 6.717 30.4644 15C30.4644 23.283 23.7474 30 15.4644 30Z" fill="url(#paint0_linear_122_106)"/>
<path d="M15.4642 6.60623C18.1972 6.60623 18.5212 6.61523 19.6012 6.66623C20.6002 6.71123 21.1432 6.87923 21.5032 7.02023C21.9802 7.20623 22.3222 7.42823 22.6792 7.78523C23.0362 8.14223 23.2582 8.48423 23.4442 8.96123C23.5852 9.32123 23.7502 9.86423 23.7982 10.8632C23.8462 11.9432 23.8582 12.2672 23.8582 15.0002C23.8582 17.7332 23.8492 18.0572 23.7982 19.1372C23.7532 20.1362 23.5852 20.6792 23.4442 21.0392C23.2582 21.5162 23.0362 21.8582 22.6792 22.2152C22.3222 22.5722 21.9802 22.7942 21.5032 22.9802C21.1432 23.1212 20.6002 23.2862 19.6012 23.3342C18.5212 23.3822 18.1972 23.3942 15.4642 23.3942C12.7312 23.3942 12.4072 23.3852 11.3272 23.3342C10.3282 23.2892 9.78517 23.1212 9.42517 22.9802C8.94817 22.7942 8.60617 22.5722 8.24917 22.2152C7.89217 21.8582 7.67017 21.5162 7.48417 21.0392C7.34317 20.6792 7.17817 20.1362 7.13017 19.1372C7.08217 18.0572 7.07017 17.7332 7.07017 15.0002C7.07017 12.2672 7.07917 11.9432 7.13017 10.8632C7.17517 9.86423 7.34317 9.32123 7.48417 8.96123C7.67017 8.48423 7.89217 8.14223 8.24917 7.78523C8.60617 7.42823 8.94817 7.20623 9.42517 7.02023C9.78517 6.87923 10.3282 6.71423 11.3272 6.66623C12.4072 6.61523 12.7312 6.60623 15.4642 6.60623ZM15.4642 4.76123C12.6832 4.76123 12.3352 4.77323 11.2432 4.82423C10.1542 4.87523 9.41017 5.04623 8.75617 5.30123C8.08417 5.55923 7.51117 5.91023 6.94417 6.48023C6.37417 7.05023 6.02617 7.62023 5.76217 8.29523C5.51017 8.94623 5.33617 9.69023 5.28517 10.7822C5.23417 11.8742 5.22217 12.2222 5.22217 15.0032C5.22217 17.7842 5.23417 18.1322 5.28517 19.2242C5.33617 20.3132 5.50717 21.0572 5.76217 21.7112C6.02317 22.3802 6.37417 22.9532 6.94417 23.5202C7.51417 24.0902 8.08417 24.4382 8.75917 24.7022C9.41017 24.9542 10.1542 25.1282 11.2462 25.1792C12.3382 25.2302 12.6862 25.2422 15.4672 25.2422C18.2482 25.2422 18.5962 25.2302 19.6882 25.1792C20.7772 25.1282 21.5212 24.9572 22.1752 24.7022C22.8442 24.4412 23.4172 24.0902 23.9842 23.5202C24.5542 22.9502 24.9022 22.3802 25.1662 21.7052C25.4182 21.0542 25.5922 20.3102 25.6432 19.2182C25.6942 18.1262 25.7062 17.7782 25.7062 14.9972C25.7062 12.2162 25.6942 11.8682 25.6432 10.7762C25.5922 9.68723 25.4212 8.94323 25.1662 8.28923C24.9052 7.62023 24.5542 7.04723 23.9842 6.48023C23.4142 5.91023 22.8442 5.56223 22.1692 5.29823C21.5182 5.04623 20.7742 4.87223 19.6822 4.82123C18.5932 4.77323 18.2452 4.76123 15.4642 4.76123Z" fill="white"/>
<path d="M15.4641 9.74121C12.5601 9.74121 10.2051 12.0962 10.2051 15.0002C10.2051 17.9042 12.5601 20.2592 15.4641 20.2592C18.3681 20.2592 20.7231 17.9042 20.7231 15.0002C20.7231 12.0962 18.3681 9.74121 15.4641 9.74121ZM15.4641 18.4142C13.5801 18.4142 12.0501 16.8872 12.0501 15.0002C12.0501 13.1132 13.5801 11.5862 15.4641 11.5862C17.3481 11.5862 18.8781 13.1132 18.8781 15.0002C18.8781 16.8872 17.3481 18.4142 15.4641 18.4142Z" fill="white"/>
<path d="M20.9302 10.7642C21.6095 10.7642 22.1602 10.2135 22.1602 9.5342C22.1602 8.85489 21.6095 8.3042 20.9302 8.3042C20.2509 8.3042 19.7002 8.85489 19.7002 9.5342C19.7002 10.2135 20.2509 10.7642 20.9302 10.7642Z" fill="white"/>
</g>
<defs>
<linearGradient id="paint0_linear_122_106" x1="4.85775" y1="25.6066" x2="26.071" y2="4.39339" gradientUnits="userSpaceOnUse">
<stop stop-color="#FFD521"/>
<stop offset="0.0551048" stop-color="#FFD020"/>
<stop offset="0.1241" stop-color="#FEC01E"/>
<stop offset="0.2004" stop-color="#FCA71B"/>
<stop offset="0.2821" stop-color="#FA8316"/>
<stop offset="0.3681" stop-color="#F85510"/>
<stop offset="0.4563" stop-color="#F51E09"/>
<stop offset="0.5" stop-color="#F30005"/>
<stop offset="0.5035" stop-color="#F20007"/>
<stop offset="0.5966" stop-color="#E1003B"/>
<stop offset="0.6879" stop-color="#D30067"/>
<stop offset="0.7757" stop-color="#C70088"/>
<stop offset="0.8589" stop-color="#BF00A0"/>
<stop offset="0.9357" stop-color="#BB00AF"/>
<stop offset="1" stop-color="#B900B4"/>
</linearGradient>
<clipPath id="clip0_122_106">
<rect width="30" height="30" fill="white" transform="translate(0.464355)"/>
</clipPath>
</defs>
</svg>
