<?xml version="1.0" encoding="utf-8"?>
<!-- Generator: Adobe Illustrator 24.1.2, SVG Export Plug-In . SVG Version: 6.00 Build 0)  -->
<svg version="1.1" id="Layer_1" xmlns="http://www.w3.org/2000/svg" xmlns:xlink="http://www.w3.org/1999/xlink" x="0px" y="0px"
	 viewBox="0 0 32 32" style="enable-background:new 0 0 32 32;" xml:space="preserve">
<style type="text/css">
	.st0{fill:#595959;}
</style>
<path class="st0" d="M28.5,5.8H3.5c-1,0-1.9,0.8-1.9,1.9v16.7c0,1,0.8,1.9,1.9,1.9h25.1c1,0,1.9-0.8,1.9-1.9V7.6
	C30.4,6.6,29.6,5.8,28.5,5.8z M29,8v15.9l-8.9-8.9L29,8z M27.9,7.2L16,16.3L4.1,7.2H27.9z M4,24.8l9.1-9.1l2.5,2
	c0.3,0.2,0.6,0.2,0.9,0l2.6-2l9.1,9.1H4z M11.9,14.9L3,23.9V8L11.9,14.9z"/>
</svg>
