<?xml version="1.0" encoding="utf-8"?>
<!-- Generator: Adobe Illustrator 24.1.2, SVG Export Plug-In . SVG Version: 6.00 Build 0)  -->
<svg version="1.1" id="Layer_1" xmlns="http://www.w3.org/2000/svg" xmlns:xlink="http://www.w3.org/1999/xlink" x="0px" y="0px"
	 viewBox="0 0 32 32" style="enable-background:new 0 0 32 32;" xml:space="preserve">
<style type="text/css">
	.st0{fill:#595959;}
</style>
<g id="Expanded">
	<g>
		<g>
			<path class="st0" d="M22.4,30H9.6c-1.6,0-2.9-1.3-2.9-2.9V4.9C6.7,3.3,8,2,9.6,2h12.8c1.6,0,2.9,1.3,2.9,2.9v22.2
				C25.3,28.7,24,30,22.4,30z M9.6,3.2c-1,0-1.7,0.8-1.7,1.7v22.2c0,1,0.8,1.8,1.7,1.8h12.8c1,0,1.8-0.8,1.8-1.8V4.9
				c0-1-0.8-1.7-1.8-1.7H9.6z"/>
		</g>
		<g>
			<path class="st0" d="M24.8,7.8H7.3c-0.3,0-0.6-0.3-0.6-0.6s0.3-0.6,0.6-0.6h17.5c0.3,0,0.6,0.3,0.6,0.6S25.1,7.8,24.8,7.8z"/>
		</g>
		<g>
			<path class="st0" d="M24.8,25.3H7.3c-0.3,0-0.6-0.3-0.6-0.6s0.3-0.6,0.6-0.6h17.5c0.3,0,0.6,0.3,0.6,0.6S25.1,25.3,24.8,25.3z"/>
		</g>
	</g>
</g>
</svg>
