<svg width="16" height="16" viewBox="0 0 16 16" fill="none" xmlns="http://www.w3.org/2000/svg">
<path d="M14.2858 11.0716C14.2858 11.2324 14.256 11.4422 14.1965 11.7011C14.137 11.96 14.0745 12.1639 14.009 12.3127C13.884 12.6103 13.5209 12.9258 12.9197 13.2591C12.3602 13.5627 11.8066 13.7145 11.259 13.7145C11.0983 13.7145 10.942 13.7041 10.7902 13.6832C10.6385 13.6624 10.4673 13.6252 10.2769 13.5716C10.0864 13.5181 9.94501 13.4749 9.85275 13.4422C9.76049 13.4094 9.59531 13.3484 9.35721 13.2591C9.11912 13.1699 8.97328 13.1163 8.91971 13.0984C8.33638 12.8901 7.81555 12.6431 7.35721 12.3574C6.59531 11.8871 5.8081 11.2457 4.99561 10.4332C4.18311 9.62074 3.54174 8.83354 3.0715 8.07164C2.78578 7.6133 2.53876 7.09247 2.33043 6.50914C2.31257 6.45557 2.259 6.30973 2.16971 6.07164C2.08043 5.83354 2.01941 5.66836 1.98668 5.5761C1.95394 5.48384 1.91078 5.34247 1.85721 5.15199C1.80364 4.96152 1.76644 4.79039 1.74561 4.6386C1.72477 4.48682 1.71436 4.33057 1.71436 4.16985C1.71436 3.62223 1.86614 3.06866 2.16971 2.50914C2.50305 1.90795 2.81852 1.54485 3.11614 1.41985C3.26495 1.35438 3.46882 1.29188 3.72775 1.23235C3.98668 1.17283 4.1965 1.14307 4.35721 1.14307C4.44055 1.14307 4.50305 1.15199 4.54471 1.16985C4.65186 1.20557 4.80959 1.43176 5.01793 1.84842C5.0834 1.96152 5.17269 2.12223 5.28578 2.33057C5.39888 2.5389 5.50305 2.72789 5.59828 2.89753C5.69352 3.06717 5.78578 3.2264 5.87507 3.37521C5.89293 3.39902 5.94501 3.47342 6.03132 3.59842C6.11763 3.72342 6.18162 3.82908 6.22328 3.91539C6.26495 4.0017 6.28578 4.08652 6.28578 4.16985C6.28578 4.2889 6.20096 4.43771 6.03132 4.61628C5.86168 4.79485 5.67715 4.95854 5.47775 5.10735C5.27834 5.25616 5.09382 5.4139 4.92418 5.58057C4.75453 5.74723 4.66971 5.88414 4.66971 5.99128C4.66971 6.04485 4.68459 6.11182 4.71436 6.19217C4.74412 6.27253 4.76941 6.33354 4.79025 6.37521C4.81108 6.41688 4.85275 6.4883 4.91525 6.58949C4.97775 6.69069 5.01197 6.74723 5.01793 6.75914C5.47031 7.57461 5.98816 8.27402 6.5715 8.85735C7.15483 9.44069 7.85424 9.95854 8.66971 10.4109C8.68162 10.4169 8.73816 10.4511 8.83935 10.5136C8.94055 10.5761 9.01197 10.6178 9.05364 10.6386C9.09531 10.6594 9.15632 10.6847 9.23668 10.7145C9.31703 10.7443 9.384 10.7591 9.43757 10.7591C9.54471 10.7591 9.68162 10.6743 9.84828 10.5047C10.0149 10.335 10.1727 10.1505 10.3215 9.9511C10.4703 9.7517 10.634 9.56717 10.8126 9.39753C10.9911 9.22789 11.1399 9.14307 11.259 9.14307C11.3423 9.14307 11.4272 9.1639 11.5135 9.20557C11.5998 9.24723 11.7054 9.31122 11.8304 9.39753C11.9554 9.48384 12.0298 9.53592 12.0536 9.55378C12.2024 9.64307 12.3617 9.73533 12.5313 9.83057C12.701 9.9258 12.8899 10.03 13.0983 10.1431C13.3066 10.2562 13.4673 10.3454 13.5804 10.4109C13.9971 10.6193 14.2233 10.777 14.259 10.8841C14.2769 10.9258 14.2858 10.9883 14.2858 11.0716Z" fill="#C4C4C4"/>
</svg>
