<?xml version="1.0" encoding="utf-8"?>
<!-- Generator: Adobe Illustrator 24.1.2, SVG Export Plug-In . SVG Version: 6.00 Build 0)  -->
<svg version="1.1" id="Layer_1" xmlns="http://www.w3.org/2000/svg" xmlns:xlink="http://www.w3.org/1999/xlink" x="0px" y="0px"
	 viewBox="0 0 48 32.3" style="enable-background:new 0 0 48 32.3;" xml:space="preserve">
<style type="text/css">
	.st0{fill-rule:evenodd;clip-rule:evenodd;fill:#925A25;}
</style>
<desc></desc>
<g id="Page-1">
	<g>
		<g id="Artboard-Copy_8_" transform="translate(-407.000000, -9.000000)">
			<path id="quote2_8_" class="st0" d="M444.2,28.9c-0.2-0.6-0.5-1.1-1-1.6c-0.5-0.5-1.1-0.9-1.9-1.2c-0.8-0.3-1.8-0.4-3-0.4h-1.7
				c0.2-2.1,0.9-3.9,2.2-5.3c1.3-1.5,3.1-2.7,5.3-3.8l-1.4-2.1c-3,1.3-5.5,3.1-7.7,5.6c-2.1,2.5-3.2,4.9-3.2,7.3
				c0,2.6,0.6,4.6,1.8,6.1c1.2,1.5,3,2.2,5.3,2.2c1.5,0,2.7-0.5,3.8-1.5c1.1-1,1.6-2.1,1.6-3.4C444.5,30.1,444.4,29.5,444.2,28.9
				 M428.8,28.9c-0.2-0.6-0.5-1.1-1-1.6c-0.5-0.5-1.1-0.9-1.9-1.2c-0.8-0.3-1.8-0.4-3-0.4h-1.7c0.2-2.1,0.9-3.9,2.2-5.3
				c1.3-1.5,3.1-2.7,5.3-3.8l-1.4-2.1c-3,1.3-5.5,3.1-7.7,5.6c-2.1,2.5-3.2,4.9-3.2,7.3c0,2.6,0.6,4.6,1.8,6.1
				c1.2,1.5,3,2.2,5.3,2.2c1.5,0,2.7-0.5,3.8-1.5c1.1-1,1.6-2.1,1.6-3.4C429.1,30.1,429,29.5,428.8,28.9"/>
		</g>
	</g>
</g>
</svg>
