<?xml version="1.0" encoding="utf-8"?><svg viewBox="0 0 800 800" xmlns="http://www.w3.org/2000/svg" xmlns:xlink="http://www.w3.org/1999/xlink"><style>:root>svg{display:none}:root>svg:target{display:block}</style><svg viewBox="0 0 30 30" id="Instagram" xmlns="http://www.w3.org/2000/svg"><path fill-rule="evenodd" clip-rule="evenodd" d="M15 0C6.716 0 0 6.716 0 15c0 8.284 6.716 15 15 15 8.284 0 15-6.716 15-15 0-8.284-6.716-15-15-15zm-3.298 7.048C12.555 7.01 12.828 7 15.001 7h-.003c2.174 0 2.445.01 3.299.048.851.04 1.433.174 1.943.372.527.204.972.478 1.417.923.445.444.718.89.923 1.417.197.508.332 1.09.372 1.941.038.854.048 1.126.048 3.3 0 2.172-.01 2.444-.048 3.297-.04.852-.175 1.433-.372 1.942a3.927 3.927 0 01-.923 1.417c-.445.445-.89.719-1.416.923-.51.198-1.091.333-1.943.372-.854.039-1.125.048-3.298.048s-2.445-.01-3.299-.048c-.851-.04-1.433-.174-1.942-.372a3.918 3.918 0 01-1.416-.923 3.92 3.92 0 01-.923-1.417c-.198-.509-.332-1.09-.372-1.942C7.01 17.445 7 17.173 7 15s.01-2.445.048-3.299c.038-.851.173-1.433.372-1.941a3.92 3.92 0 01.923-1.417A3.918 3.918 0 019.76 7.42c.509-.198 1.09-.333 1.942-.372z"/><path fill-rule="evenodd" clip-rule="evenodd" d="M14.283 8.442h.718c2.136 0 2.389.007 3.232.046.78.035 1.204.166 1.486.275.373.145.64.319.92.599.28.28.453.546.598.92.11.281.24.705.275 1.485.039.843.047 1.096.047 3.231s-.008 2.389-.047 3.232c-.035.78-.166 1.203-.275 1.485a2.47 2.47 0 01-.599.919c-.28.28-.546.453-.92.598-.28.11-.704.24-1.485.276-.843.038-1.096.047-3.232.047s-2.39-.009-3.233-.047c-.78-.036-1.203-.166-1.485-.276a2.478 2.478 0 01-.92-.598 2.48 2.48 0 01-.6-.92c-.109-.281-.24-.705-.275-1.485-.038-.843-.046-1.096-.046-3.233 0-2.136.008-2.388.046-3.231.036-.78.166-1.204.276-1.486.145-.373.319-.64.599-.92.28-.28.546-.453.92-.598.282-.11.705-.24 1.485-.276.738-.034 1.024-.044 2.515-.045v.002zm4.988 1.328a.96.96 0 100 1.92.96.96 0 000-1.92zM10.893 15a4.109 4.109 0 118.217 0 4.109 4.109 0 01-8.217 0z"/><path fill-rule="evenodd" clip-rule="evenodd" d="M15 12.334a2.667 2.667 0 110 5.333 2.667 2.667 0 010-5.334z"/></svg><svg viewBox="0 0 31 31" id="call" xmlns="http://www.w3.org/2000/svg"><path d="M25.769 27.125c-2.691 0-5.35-.586-7.976-1.76-2.627-1.172-5.016-2.835-7.169-4.989-2.153-2.154-3.816-4.543-4.988-7.169-1.173-2.625-1.76-5.284-1.761-7.976 0-.387.13-.71.388-.968a1.31 1.31 0 01.968-.388h5.232c.3 0 .57.102.807.307.237.205.377.447.42.726l.84 4.521c.042.345.032.635-.033.872a1.359 1.359 0 01-.355.614l-3.133 3.164c.43.797.942 1.566 1.534 2.308a22.702 22.702 0 001.954 2.148 22.775 22.775 0 002.099 1.858 20.27 20.27 0 002.325 1.565l3.035-3.035c.194-.194.447-.339.76-.435a2.1 2.1 0 01.92-.082l4.456.904c.301.087.549.243.742.47.194.226.291.479.291.758v5.23c0 .388-.13.711-.387.97a1.314 1.314 0 01-.97.387z"/><path d="M25.769 27.125c-2.691 0-5.35-.586-7.976-1.76-2.627-1.172-5.016-2.835-7.169-4.989-2.153-2.154-3.816-4.543-4.988-7.169-1.173-2.625-1.76-5.284-1.761-7.976 0-.387.13-.71.388-.968a1.31 1.31 0 01.968-.388h5.232c.3 0 .57.102.807.307.237.205.377.447.42.726l.84 4.521c.042.345.032.635-.033.872a1.359 1.359 0 01-.355.614l-3.133 3.164c.43.797.942 1.566 1.534 2.308a22.702 22.702 0 001.954 2.148 22.775 22.775 0 002.099 1.858 20.27 20.27 0 002.325 1.565l3.035-3.035c.194-.194.447-.339.76-.435a2.1 2.1 0 01.92-.082l4.456.904c.301.087.549.243.742.47.194.226.291.479.291.758v5.23c0 .388-.13.711-.387.97a1.314 1.314 0 01-.97.387z"/><defs><linearGradient id="ba" x1="27.125" y1="3.875" x2="4.058" y2="3.695" gradientUnits="userSpaceOnUse"><stop stop-color="#DA892B"/><stop offset=".471" stop-color="#E6A355"/><stop offset="1" stop-color="#DA892B"/></linearGradient></defs></svg><svg viewBox="0 0 17.837 17.837" id="check" xmlns="http://www.w3.org/2000/svg"><path d="M16.145 2.571a.7.7 0 00-.99 0L6.92 10.804l-4.241-4.27a.698.698 0 00-.989 0L.204 8.019a.703.703 0 000 .99l6.217 6.258a.704.704 0 00.99 0L17.63 5.047a.7.7 0 000-.994l-1.485-1.482z"/></svg><svg viewBox="0 0 14 15" id="close" xmlns="http://www.w3.org/2000/svg"><path d="M1.492 2L12.6 13.107m-11.2.001L12.508 2"/></svg><svg viewBox="0 0 30 30" id="facebook" xmlns="http://www.w3.org/2000/svg"><path fill-rule="evenodd" clip-rule="evenodd" d="M15 0C6.716 0 0 6.716 0 15c0 8.284 6.716 15 15 15 8.284 0 15-6.716 15-15 0-8.284-6.716-15-15-15zm1.564 15.659v8.16h-3.377v-8.16H11.5v-2.812h1.687v-1.688c0-2.295.953-3.659 3.659-3.659h2.253v2.813H17.69c-1.053 0-1.123.393-1.123 1.126l-.003 1.408h2.55l-.298 2.812h-2.252z"/></svg><svg viewBox="0 0 502.664 502.664" id="icon" xmlns="http://www.w3.org/2000/svg"><path d="M153.821 358.226L0 274.337v-46.463l153.821-83.414v54.574L46.636 250.523l107.185 53.431v54.272zm26.273 29.358L282.103 115.08h32.227L212.084 387.584h-31.99zm168.749-29.358v-54.272l107.164-52.999-107.164-52.59v-53.927l153.821 83.522v46.183l-153.821 84.083z"/></svg><svg viewBox="0 0 40 40" id="next" xmlns="http://www.w3.org/2000/svg"><path fill-rule="evenodd" clip-rule="evenodd" d="M3.333 20c0 9.2 7.483 16.667 16.667 16.667l.466-.007c8.985-.247 16.2-7.616 16.2-16.66C36.666 10.817 29.2 3.333 20 3.333 10.816 3.333 3.333 10.817 3.333 20zM23.3 13.333c.483.5.483 1.284-.017 1.767L18.366 20l4.917 4.9c.5.483.5 1.283.017 1.767-.5.5-1.284.5-1.767 0l-5.817-5.784a1.249 1.249 0 010-1.766l5.817-5.784c.233-.25.55-.366.867-.366.333 0 .65.116.9.366z"/></svg><svg viewBox="0 0 40 40" id="prev" xmlns="http://www.w3.org/2000/svg"><path fill-rule="evenodd" clip-rule="evenodd" d="M36.667 20c0 9.2-7.484 16.667-16.667 16.667l-.466-.007c-8.985-.247-16.2-7.616-16.2-16.66C3.334 10.817 10.8 3.333 20 3.333c9.183 0 16.667 7.484 16.667 16.667zM16.7 13.333c-.483.5-.483 1.284.017 1.767l4.917 4.9-4.917 4.9c-.5.483-.5 1.283-.017 1.767.5.5 1.284.5 1.767 0l5.817-5.784a1.249 1.249 0 000-1.766l-5.817-5.784a1.173 1.173 0 00-.867-.366c-.333 0-.65.116-.9.366z"/></svg><svg viewBox="0 0 34 34" id="tube_blue" xmlns="http://www.w3.org/2000/svg"><g filter="url(#ia)"><mask id="ia"><path fill-rule="evenodd" clip-rule="evenodd" d="M17 26c7.18 0 13-5.82 13-13S24.18 0 17 0 4 5.82 4 13s5.82 13 13 13zm-6.983-7.38C6.16 14.082 8.059 7.28 13.793 5.083a1.25 1.25 0 01.26-.08c.016.004.683 2.072 1.481 4.596.862 2.725 1.166 4.087 1.47 4.086.302 0 .604-1.357 1.46-4.07C19.742 5.57 19.9 4.996 20.042 5c.043.001.085.054.156.081 5.726 2.139 7.648 9 3.791 13.538l-.323.381-2.138-.01-2.137-.008-.22-.95-.218-.95.127-.052c2.83-1.149 4.246-4.195 3.367-7.242-.281-.975-1.062-2.09-1.267-1.81-.126.173-1.214 3.662-2.489 7.98l-.796 2.697-.092.31h-1.601l-.185-.629c-1.729-5.888-3.043-10.155-3.191-10.358-.205-.28-.986.835-1.267 1.81-.88 3.047.537 6.093 3.367 7.242l.127.051-.219.95-.219.95-2.138.01L10.34 19l-.323-.38z"/></mask><path fill-rule="evenodd" clip-rule="evenodd" d="M17 26c7.18 0 13-5.82 13-13S24.18 0 17 0 4 5.82 4 13s5.82 13 13 13zm-6.983-7.38C6.16 14.082 8.059 7.28 13.793 5.083a1.25 1.25 0 01.26-.08c.016.004.683 2.072 1.481 4.596.862 2.725 1.166 4.087 1.47 4.086.302 0 .604-1.357 1.46-4.07C19.742 5.57 19.9 4.996 20.042 5c.043.001.085.054.156.081 5.726 2.139 7.648 9 3.791 13.538l-.323.381-2.138-.01-2.137-.008-.22-.95-.218-.95.127-.052c2.83-1.149 4.246-4.195 3.367-7.242-.281-.975-1.062-2.09-1.267-1.81-.126.173-1.214 3.662-2.489 7.98l-.796 2.697-.092.31h-1.601l-.185-.629c-1.729-5.888-3.043-10.155-3.191-10.358-.205-.28-.986.835-1.267 1.81-.88 3.047.537 6.093 3.367 7.242l.127.051-.219.95-.219.95-2.138.01L10.34 19l-.323-.38z"/><path d="M13.793 5.084l-1.43-3.735 1.43 3.735zM10.017 18.62l3.048-2.59-3.048 2.59zm4.036-13.615l-.971 3.88.01.003.96-3.883zM15.534 9.6l-3.814 1.206L15.534 9.6zm1.47 4.086l-.003-4 .002 4zm1.46-4.07L14.65 8.412l3.814 1.204zM20.042 5l-.095 3.999L20.042 5zm.156.081l1.4-3.747-1.4 3.747zm3.791 13.538l-3.048-2.59 3.048 2.59zm-.323.381l-.017 4 1.86.008 1.205-1.418L23.666 19zm-2.138-.01l-.017 4 .017-4zm-2.137-.008l-3.898.898.712 3.088 3.169.014.017-4zm-.22-.95l-3.897.898 3.898-.898zm-.218-.95l-1.504-3.707-3.16 1.282.766 3.323 3.898-.899zm.127-.052l1.504 3.706h.001L19.08 17.03zm3.367-7.242l3.844-1.108-3.844 1.108zm-1.267-1.81l-3.232-2.357 3.232 2.357zm-2.489 7.98l3.837 1.132-3.837-1.133zm-.796 2.697l3.836 1.133-3.836-1.133zm-.092.31v4h2.989l.847-2.867-3.836-1.134zm-1.601 0l-3.838 1.126.843 2.873h2.995v-4zm-.185-.629l3.838-1.127-3.838 1.127zM12.826 7.978l3.232-2.356-3.232 2.356zm-1.267 1.81L7.715 8.68l3.844 1.108zm3.367 7.242l-1.505 3.706 1.505-3.706zm.127.051l3.898.899.765-3.323-3.16-1.282-1.503 3.706zm-.219.95l3.898.899-3.898-.898zm-.219.95l.017 4 3.17-.013.71-3.088-3.897-.898zm-2.138.01l.018 4-.018-4zM10.34 19l-3.048 2.59 1.205 1.418 1.86-.008-.017-4zM26 13a9 9 0 01-9 9v8c9.389 0 17-7.611 17-17h-8zm-9-9a9 9 0 019 9h8c0-9.389-7.611-17-17-17v8zm-9 9a9 9 0 019-9v-8C7.611-4 0 3.611 0 13h8zm9 9a9 9 0 01-9-9H0c0 9.389 7.611 17 17 17v-8zM12.363 1.349c-8.122 3.11-11.165 13.07-5.394 19.86l6.096-5.18c-1.94-2.283-1.188-5.928 2.158-7.21l-2.86-7.47zm2.66-.225a4.016 4.016 0 00-1.907-.012c-.146.034-.267.07-.333.09a6.84 6.84 0 00-.42.147l2.86 7.47c-.002.001-.025.01-.078.027-.02.006-.1.031-.216.058a3.798 3.798 0 01-.776.098c-.141.004-.558.01-1.071-.118l1.941-7.76zm4.325 7.27c-.4-1.267-.77-2.422-1.04-3.264a151.277 151.277 0 00-.44-1.338 7.112 7.112 0 00-.06-.168c-.009-.024-.038-.104-.08-.2-.015-.035-.07-.164-.156-.32a4.015 4.015 0 00-.797-1.03 4.001 4.001 0 00-1.761-.953L13.09 8.887a7.111 7.111 0 01-1.178-.504 7.13 7.13 0 01-.582-.448 3.997 3.997 0 01-.796-1.027c-.083-.154-.137-.28-.151-.311-.038-.088-.063-.156-.066-.164l-.01-.027.073.218a635.976 635.976 0 011.34 4.182l7.627-2.412zM17 9.686c1.571 0 2.524.894 2.835 1.233.333.363.49.686.513.731.059.12.043.115-.067-.223-.095-.29-.209-.667-.369-1.196-.154-.513-.341-1.13-.565-1.837l-7.628 2.412c.352 1.114.758 2.493.954 3.097.112.343.283.85.511 1.309.107.216.344.666.756 1.115.388.423 1.417 1.36 3.064 1.36l-.004-8zm-2.35-1.274c-.223.704-.408 1.319-.562 1.83-.16.526-.272.901-.366 1.19-.11.337-.125.34-.066.22.023-.046.18-.37.513-.733a3.845 3.845 0 012.832-1.233l.004 8c1.645 0 2.672-.936 3.061-1.36.411-.449.648-.9.755-1.115.228-.46.398-.965.51-1.307.194-.598.6-1.98.948-3.083l-7.63-2.409zm5.487-7.41c-1.629-.04-2.688.858-3.154 1.386-.402.457-.617.91-.688 1.06-.169.359-.309.77-.41 1.074-.231.69-.61 1.91-1.235 3.89l7.629 2.409c.652-2.066.99-3.157 1.193-3.764.116-.345.121-.33.062-.204-.016.034-.185.411-.547.822a3.893 3.893 0 01-1.082.857 3.946 3.946 0 01-1.958.467L20.137 1zm1.46.332c.499.186.877.468.76.388a4.418 4.418 0 00-.49-.288A4.076 4.076 0 0020.137 1l-.19 8a3.924 3.924 0 01-2.085-.659c-.034-.023.094.066.23.147.157.094.397.226.706.341l2.8-7.494zm5.44 19.876c5.763-6.782 2.721-16.828-5.44-19.876l-2.799 7.494c3.292 1.23 4.093 4.907 2.143 7.201l6.096 5.18zm-.323.38l.323-.38-6.096-5.18-.323.38 6.096 5.18zm-5.203 1.4l2.138.01.034-8-2.138-.01-.034 8zm-2.137-.008l2.137.009.034-8-2.137-.01-.034 8zm-4.1-4.052l.219.95 7.796-1.797-.22-.95-7.795 1.797zm-.219-.95l.219.95 7.796-1.796-.22-.95-7.795 1.796zm2.521-4.657l-.127.052 3.008 7.413.127-.052-3.008-7.413zm1.028-2.426c.345 1.197-.207 2.093-1.029 2.427l3.01 7.412c4.838-1.964 7.118-7.16 5.706-12.056l-7.687 2.217zm5.808-.562a3.895 3.895 0 01-3.66 1.565 3.691 3.691 0 01-1.737-.702 2.826 2.826 0 01-.418-.381c-.058-.066-.086-.107-.089-.11-.004-.006.023.034.058.104.034.071.044.106.038.086L26.29 8.68a8.969 8.969 0 00-1.23-2.562 5.762 5.762 0 00-1.226-1.305 4.311 4.311 0 00-2.024-.842 4.1 4.1 0 00-3.863 1.65l6.464 4.714zm-1.884 6.755a394.163 394.163 0 011.657-5.485c.22-.707.4-1.266.527-1.649.065-.195.108-.317.13-.38a3.305 3.305 0 01-.087.192 3.677 3.677 0 01-.343.567l-6.464-4.713c-.216.296-.344.56-.373.619a4.814 4.814 0 00-.116.255 7.52 7.52 0 00-.123.316c-.066.177-.139.39-.213.614-.152.455-.349 1.07-.575 1.797a401.866 401.866 0 00-1.693 5.602l7.673 2.265zm-.797 2.697l.796-2.697-7.672-2.265-.796 2.697 7.672 2.265zm-.092.311l.092-.31-7.672-2.267-.092.31 7.672 2.267zm-4.636 2.866h.8v-8h-.8v8zm-.801 0h.8v-8h-.8v8zm-4.023-3.5l.185.627 7.676-2.254-.185-.628-7.675 2.254zm-2.585-9.129c-.216-.296-.337-.554-.351-.583-.04-.08-.064-.14-.071-.157-.015-.037-.016-.042.002.008.033.091.088.253.17.5.16.485.383 1.194.662 2.1a606.393 606.393 0 012.174 7.26l7.675-2.254a611.314 611.314 0 00-2.204-7.362c-.284-.922-.525-1.686-.707-2.242-.09-.273-.175-.524-.249-.728a8.234 8.234 0 00-.133-.346 4.915 4.915 0 00-.119-.265c-.028-.057-.16-.335-.385-.644l-6.464 4.713zm5.808.562c-.006.02.004-.015.038-.086.035-.07.061-.11.058-.105a1.305 1.305 0 01-.09.111 2.82 2.82 0 01-.417.38 3.691 3.691 0 01-1.738.703 3.891 3.891 0 01-3.66-1.565l6.465-4.714a4.1 4.1 0 00-3.863-1.65 4.31 4.31 0 00-2.024.842c-.605.457-1.016 1.004-1.227 1.305A8.97 8.97 0 007.715 8.68l7.687 2.217zm1.028 2.427c-.82-.334-1.373-1.23-1.028-2.427L7.715 8.68c-1.412 4.895.868 10.092 5.706 12.056l3.01-7.412zm.127.051l-.127-.052-3.008 7.413.127.052 3.008-7.413zm2.175 5.555l.219-.95-7.796-1.797-.219.95 7.796 1.797zm-.22.95l.22-.95-7.796-1.797-.219.95 7.796 1.797zm-6.017 3.11l2.137-.008-.034-8-2.138.009.035 8zm-2.138.01l2.138-.01-.034-8-2.138.01.034 8zm-3.388-1.79l.323.38 6.096-5.18-.323-.38-6.096 5.18z" mask="url(#ia)"/></g><defs><filter id="ia" x="0" y="0" width="34" height="34" filterUnits="userSpaceOnUse" color-interpolation-filters="sRGB"><feFlood flood-opacity="0" result="BackgroundImageFix"/><feColorMatrix in="SourceAlpha" values="0 0 0 0 0 0 0 0 0 0 0 0 0 0 0 0 0 0 127 0" result="hardAlpha"/><feOffset dy="4"/><feGaussianBlur stdDeviation="2"/><feComposite in2="hardAlpha" operator="out"/><feColorMatrix values="0 0 0 0 0 0 0 0 0 0 0 0 0 0 0 0 0 0 0.25 0"/><feBlend in2="BackgroundImageFix" result="effect1_dropShadow_21_1358"/><feBlend in="SourceGraphic" in2="effect1_dropShadow_21_1358" result="shape"/></filter></defs></svg><svg viewBox="0 0 34 34" id="tube_green" xmlns="http://www.w3.org/2000/svg"><g filter="url(#ja)"><mask id="ja"><path fill-rule="evenodd" clip-rule="evenodd" d="M17 26c7.18 0 13-5.82 13-13S24.18 0 17 0 4 5.82 4 13s5.82 13 13 13zm-6.983-7.38C6.16 14.082 8.059 7.28 13.793 5.083a1.25 1.25 0 01.26-.08c.016.004.683 2.072 1.481 4.596.862 2.725 1.166 4.087 1.47 4.086.302 0 .604-1.357 1.46-4.07C19.742 5.57 19.9 4.996 20.042 5c.043.001.085.054.156.081 5.726 2.139 7.648 9 3.791 13.538l-.323.381-2.138-.01-2.137-.008-.22-.95-.218-.95.127-.052c2.83-1.149 4.246-4.195 3.367-7.242-.281-.975-1.062-2.09-1.267-1.81-.126.173-1.214 3.662-2.489 7.98l-.796 2.697-.092.31h-1.601l-.185-.629c-1.729-5.888-3.043-10.155-3.191-10.358-.205-.28-.986.835-1.267 1.81-.88 3.047.537 6.093 3.367 7.242l.127.051-.219.95-.219.95-2.138.01L10.34 19l-.323-.38z"/></mask><path fill-rule="evenodd" clip-rule="evenodd" d="M17 26c7.18 0 13-5.82 13-13S24.18 0 17 0 4 5.82 4 13s5.82 13 13 13zm-6.983-7.38C6.16 14.082 8.059 7.28 13.793 5.083a1.25 1.25 0 01.26-.08c.016.004.683 2.072 1.481 4.596.862 2.725 1.166 4.087 1.47 4.086.302 0 .604-1.357 1.46-4.07C19.742 5.57 19.9 4.996 20.042 5c.043.001.085.054.156.081 5.726 2.139 7.648 9 3.791 13.538l-.323.381-2.138-.01-2.137-.008-.22-.95-.218-.95.127-.052c2.83-1.149 4.246-4.195 3.367-7.242-.281-.975-1.062-2.09-1.267-1.81-.126.173-1.214 3.662-2.489 7.98l-.796 2.697-.092.31h-1.601l-.185-.629c-1.729-5.888-3.043-10.155-3.191-10.358-.205-.28-.986.835-1.267 1.81-.88 3.047.537 6.093 3.367 7.242l.127.051-.219.95-.219.95-2.138.01L10.34 19l-.323-.38z"/><path d="M13.793 5.084l-1.43-3.735 1.43 3.735zM10.017 18.62l3.048-2.59-3.048 2.59zm4.036-13.615l-.971 3.88.01.003.96-3.883zM15.534 9.6l-3.814 1.206L15.534 9.6zm1.47 4.086l-.003-4 .002 4zm1.46-4.07L14.65 8.412l3.814 1.204zM20.042 5l-.095 3.999L20.042 5zm.156.081l1.4-3.747-1.4 3.747zm3.791 13.538l-3.048-2.59 3.048 2.59zm-.323.381l-.017 4 1.86.008 1.205-1.418L23.666 19zm-2.138-.01l-.017 4 .017-4zm-2.137-.008l-3.898.898.712 3.088 3.169.014.017-4zm-.22-.95l-3.897.898 3.898-.898zm-.218-.95l-1.504-3.707-3.16 1.282.766 3.323 3.898-.899zm.127-.052l1.504 3.706h.001L19.08 17.03zm3.367-7.242l3.844-1.108-3.844 1.108zm-1.267-1.81l-3.232-2.357 3.232 2.357zm-2.489 7.98l3.837 1.132-3.837-1.133zm-.796 2.697l3.836 1.133-3.836-1.133zm-.092.31v4h2.989l.847-2.867-3.836-1.134zm-1.601 0l-3.838 1.126.843 2.873h2.995v-4zm-.185-.629l3.838-1.127-3.838 1.127zM12.826 7.978l3.232-2.356-3.232 2.356zm-1.267 1.81L7.715 8.68l3.844 1.108zm3.367 7.242l-1.505 3.706 1.505-3.706zm.127.051l3.898.899.765-3.323-3.16-1.282-1.503 3.706zm-.219.95l3.898.899-3.898-.898zm-.219.95l.017 4 3.17-.013.71-3.088-3.897-.898zm-2.138.01l.018 4-.018-4zM10.34 19l-3.048 2.59 1.205 1.418 1.86-.008-.017-4zM26 13a9 9 0 01-9 9v8c9.389 0 17-7.611 17-17h-8zm-9-9a9 9 0 019 9h8c0-9.389-7.611-17-17-17v8zm-9 9a9 9 0 019-9v-8C7.611-4 0 3.611 0 13h8zm9 9a9 9 0 01-9-9H0c0 9.389 7.611 17 17 17v-8zM12.363 1.349c-8.122 3.11-11.165 13.07-5.394 19.86l6.096-5.18c-1.94-2.283-1.188-5.928 2.158-7.21l-2.86-7.47zm2.66-.225a4.016 4.016 0 00-1.907-.012c-.146.034-.267.07-.333.09a6.84 6.84 0 00-.42.147l2.86 7.47c-.002.001-.025.01-.078.027-.02.006-.1.031-.216.058a3.798 3.798 0 01-.776.098c-.141.004-.558.01-1.071-.118l1.941-7.76zm4.325 7.27c-.4-1.267-.77-2.422-1.04-3.264a151.277 151.277 0 00-.44-1.338 7.112 7.112 0 00-.06-.168c-.009-.024-.038-.104-.08-.2-.015-.035-.07-.164-.156-.32a4.015 4.015 0 00-.797-1.03 4.001 4.001 0 00-1.761-.953L13.09 8.887a7.111 7.111 0 01-1.178-.504 7.13 7.13 0 01-.582-.448 3.997 3.997 0 01-.796-1.027c-.083-.154-.137-.28-.151-.311-.038-.088-.063-.156-.066-.164l-.01-.027.073.218a635.976 635.976 0 011.34 4.182l7.627-2.412zM17 9.686c1.571 0 2.524.894 2.835 1.233.333.363.49.686.513.731.059.12.043.115-.067-.223-.095-.29-.209-.667-.369-1.196-.154-.513-.341-1.13-.565-1.837l-7.628 2.412c.352 1.114.758 2.493.954 3.097.112.343.283.85.511 1.309.107.216.344.666.756 1.115.388.423 1.417 1.36 3.064 1.36l-.004-8zm-2.35-1.274c-.223.704-.408 1.319-.562 1.83-.16.526-.272.901-.366 1.19-.11.337-.125.34-.066.22.023-.046.18-.37.513-.733a3.845 3.845 0 012.832-1.233l.004 8c1.645 0 2.672-.936 3.061-1.36.411-.449.648-.9.755-1.115.228-.46.398-.965.51-1.307.194-.598.6-1.98.948-3.083l-7.63-2.409zm5.487-7.41c-1.629-.04-2.688.858-3.154 1.386-.402.457-.617.91-.688 1.06-.169.359-.309.77-.41 1.074-.231.69-.61 1.91-1.235 3.89l7.629 2.409c.652-2.066.99-3.157 1.193-3.764.116-.345.121-.33.062-.204-.016.034-.185.411-.547.822a3.893 3.893 0 01-1.082.857 3.946 3.946 0 01-1.958.467L20.137 1zm1.46.332c.499.186.877.468.76.388a4.418 4.418 0 00-.49-.288A4.076 4.076 0 0020.137 1l-.19 8a3.924 3.924 0 01-2.085-.659c-.034-.023.094.066.23.147.157.094.397.226.706.341l2.8-7.494zm5.44 19.876c5.763-6.782 2.721-16.828-5.44-19.876l-2.799 7.494c3.292 1.23 4.093 4.907 2.143 7.201l6.096 5.18zm-.323.38l.323-.38-6.096-5.18-.323.38 6.096 5.18zm-5.203 1.4l2.138.01.034-8-2.138-.01-.034 8zm-2.137-.008l2.137.009.034-8-2.137-.01-.034 8zm-4.1-4.052l.219.95 7.796-1.797-.22-.95-7.795 1.797zm-.219-.95l.219.95 7.796-1.796-.22-.95-7.795 1.796zm2.521-4.657l-.127.052 3.008 7.413.127-.052-3.008-7.413zm1.028-2.426c.345 1.197-.207 2.093-1.029 2.427l3.01 7.412c4.838-1.964 7.118-7.16 5.706-12.056l-7.687 2.217zm5.808-.562a3.895 3.895 0 01-3.66 1.565 3.691 3.691 0 01-1.737-.702 2.826 2.826 0 01-.418-.381c-.058-.066-.086-.107-.089-.11-.004-.006.023.034.058.104.034.071.044.106.038.086L26.29 8.68a8.969 8.969 0 00-1.23-2.562 5.762 5.762 0 00-1.226-1.305 4.311 4.311 0 00-2.024-.842 4.1 4.1 0 00-3.863 1.65l6.464 4.714zm-1.884 6.755a394.163 394.163 0 011.657-5.485c.22-.707.4-1.266.527-1.649.065-.195.108-.317.13-.38a3.305 3.305 0 01-.087.192 3.677 3.677 0 01-.343.567l-6.464-4.713c-.216.296-.344.56-.373.619a4.814 4.814 0 00-.116.255 7.52 7.52 0 00-.123.316c-.066.177-.139.39-.213.614-.152.455-.349 1.07-.575 1.797a401.866 401.866 0 00-1.693 5.602l7.673 2.265zm-.797 2.697l.796-2.697-7.672-2.265-.796 2.697 7.672 2.265zm-.092.311l.092-.31-7.672-2.267-.092.31 7.672 2.267zm-4.636 2.866h.8v-8h-.8v8zm-.801 0h.8v-8h-.8v8zm-4.023-3.5l.185.627 7.676-2.254-.185-.628-7.675 2.254zm-2.585-9.129c-.216-.296-.337-.554-.351-.583-.04-.08-.064-.14-.071-.157-.015-.037-.016-.042.002.008.033.091.088.253.17.5.16.485.383 1.194.662 2.1a606.393 606.393 0 012.174 7.26l7.675-2.254a611.314 611.314 0 00-2.204-7.362c-.284-.922-.525-1.686-.707-2.242-.09-.273-.175-.524-.249-.728a8.234 8.234 0 00-.133-.346 4.915 4.915 0 00-.119-.265c-.028-.057-.16-.335-.385-.644l-6.464 4.713zm5.808.562c-.006.02.004-.015.038-.086.035-.07.061-.11.058-.105a1.305 1.305 0 01-.09.111 2.82 2.82 0 01-.417.38 3.691 3.691 0 01-1.738.703 3.891 3.891 0 01-3.66-1.565l6.465-4.714a4.1 4.1 0 00-3.863-1.65 4.31 4.31 0 00-2.024.842c-.605.457-1.016 1.004-1.227 1.305A8.97 8.97 0 007.715 8.68l7.687 2.217zm1.028 2.427c-.82-.334-1.373-1.23-1.028-2.427L7.715 8.68c-1.412 4.895.868 10.092 5.706 12.056l3.01-7.412zm.127.051l-.127-.052-3.008 7.413.127.052 3.008-7.413zm2.175 5.555l.219-.95-7.796-1.797-.219.95 7.796 1.797zm-.22.95l.22-.95-7.796-1.797-.219.95 7.796 1.797zm-6.017 3.11l2.137-.008-.034-8-2.138.009.035 8zm-2.138.01l2.138-.01-.034-8-2.138.01.034 8zm-3.388-1.79l.323.38 6.096-5.18-.323-.38-6.096 5.18z" mask="url(#ja)"/></g><defs><filter id="ja" x="0" y="0" width="34" height="34" filterUnits="userSpaceOnUse" color-interpolation-filters="sRGB"><feFlood flood-opacity="0" result="BackgroundImageFix"/><feColorMatrix in="SourceAlpha" values="0 0 0 0 0 0 0 0 0 0 0 0 0 0 0 0 0 0 127 0" result="hardAlpha"/><feOffset dy="4"/><feGaussianBlur stdDeviation="2"/><feComposite in2="hardAlpha" operator="out"/><feColorMatrix values="0 0 0 0 0 0 0 0 0 0 0 0 0 0 0 0 0 0 0.25 0"/><feBlend in2="BackgroundImageFix" result="effect1_dropShadow_21_1343"/><feBlend in="SourceGraphic" in2="effect1_dropShadow_21_1343" result="shape"/></filter></defs></svg><svg viewBox="0 0 34 34" id="tube_red" xmlns="http://www.w3.org/2000/svg"><g filter="url(#ka)"><mask id="ka"><path fill-rule="evenodd" clip-rule="evenodd" d="M17 26c7.18 0 13-5.82 13-13S24.18 0 17 0 4 5.82 4 13s5.82 13 13 13zm-6.983-7.38C6.16 14.082 8.059 7.28 13.793 5.083a1.25 1.25 0 01.26-.08c.016.004.683 2.072 1.481 4.596.862 2.725 1.166 4.087 1.47 4.086.302 0 .604-1.357 1.46-4.07C19.742 5.57 19.9 4.996 20.042 5c.043.001.085.054.156.081 5.726 2.139 7.648 9 3.791 13.538l-.323.381-2.138-.01-2.137-.008-.22-.95-.218-.95.127-.052c2.83-1.149 4.246-4.195 3.367-7.242-.281-.975-1.062-2.09-1.267-1.81-.126.173-1.214 3.662-2.489 7.98l-.796 2.697-.092.31h-1.601l-.185-.629c-1.729-5.888-3.043-10.155-3.191-10.358-.205-.28-.986.835-1.267 1.81-.88 3.047.537 6.093 3.367 7.242l.127.051-.219.95-.219.95-2.138.01L10.34 19l-.323-.38z"/></mask><path d="M13.793 5.084l-1.43-3.735 1.43 3.735zM10.017 18.62l3.048-2.59-3.048 2.59zm4.036-13.615l-.971 3.88.01.003.96-3.883zM15.534 9.6l-3.814 1.206L15.534 9.6zm1.47 4.086l-.003-4 .002 4zm1.46-4.07L14.65 8.412l3.814 1.204zM20.042 5l-.095 3.999L20.042 5zm.156.081l1.4-3.747-1.4 3.747zm3.791 13.538l-3.048-2.59 3.048 2.59zm-.323.381l-.017 4 1.86.008 1.205-1.418L23.666 19zm-2.138-.01l-.017 4 .017-4zm-2.137-.008l-3.898.898.712 3.088 3.169.014.017-4zm-.22-.95l-3.897.898 3.898-.898zm-.218-.95l-1.504-3.707-3.16 1.282.766 3.323 3.898-.899zm.127-.052l1.504 3.706h.001L19.08 17.03zm3.367-7.242l3.844-1.108-3.844 1.108zm-1.267-1.81l-3.232-2.357 3.232 2.357zm-2.489 7.98l3.837 1.132-3.837-1.133zm-.796 2.697l3.836 1.133-3.836-1.133zm-.092.31v4h2.989l.847-2.867-3.836-1.134zm-1.601 0l-3.838 1.126.843 2.873h2.995v-4zm-.185-.629l3.838-1.127-3.838 1.127zM12.826 7.978l3.232-2.356-3.232 2.356zm-1.267 1.81L7.715 8.68l3.844 1.108zm3.367 7.242l-1.505 3.706 1.505-3.706zm.127.051l3.898.899.765-3.323-3.16-1.282-1.503 3.706zm-.219.95l3.898.899-3.898-.898zm-.219.95l.017 4 3.17-.013.71-3.088-3.897-.898zm-2.138.01l.018 4-.018-4zM10.34 19l-3.048 2.59 1.205 1.418 1.86-.008-.017-4zM26 13a9 9 0 01-9 9v8c9.389 0 17-7.611 17-17h-8zm-9-9a9 9 0 019 9h8c0-9.389-7.611-17-17-17v8zm-9 9a9 9 0 019-9v-8C7.611-4 0 3.611 0 13h8zm9 9a9 9 0 01-9-9H0c0 9.389 7.611 17 17 17v-8zM12.363 1.349c-8.122 3.11-11.165 13.07-5.394 19.86l6.096-5.18c-1.94-2.283-1.188-5.928 2.158-7.21l-2.86-7.47zm2.66-.225a4.016 4.016 0 00-1.907-.012c-.146.034-.267.07-.333.09a6.84 6.84 0 00-.42.147l2.86 7.47c-.002.001-.025.01-.078.027-.02.006-.1.031-.216.058a3.798 3.798 0 01-.776.098c-.141.004-.558.01-1.071-.118l1.941-7.76zm4.325 7.27c-.4-1.267-.77-2.422-1.04-3.264a151.277 151.277 0 00-.44-1.338 7.112 7.112 0 00-.06-.168c-.009-.024-.038-.104-.08-.2-.015-.035-.07-.164-.156-.32a4.015 4.015 0 00-.797-1.03 4.001 4.001 0 00-1.761-.953L13.09 8.887a7.111 7.111 0 01-1.178-.504 7.13 7.13 0 01-.582-.448 3.997 3.997 0 01-.796-1.027c-.083-.154-.137-.28-.151-.311-.038-.088-.063-.156-.066-.164l-.01-.027.073.218a635.976 635.976 0 011.34 4.182l7.627-2.412zM17 9.686c1.571 0 2.524.894 2.835 1.233.333.363.49.686.513.731.059.12.043.115-.067-.223-.095-.29-.209-.667-.369-1.196-.154-.513-.341-1.13-.565-1.837l-7.628 2.412c.352 1.114.758 2.493.954 3.097.112.343.283.85.511 1.309.107.216.344.666.756 1.115.388.423 1.417 1.36 3.064 1.36l-.004-8zm-2.35-1.274c-.223.704-.408 1.319-.562 1.83-.16.526-.272.901-.366 1.19-.11.337-.125.34-.066.22.023-.046.18-.37.513-.733a3.845 3.845 0 012.832-1.233l.004 8c1.645 0 2.672-.936 3.061-1.36.411-.449.648-.9.755-1.115.228-.46.398-.965.51-1.307.194-.598.6-1.98.948-3.083l-7.63-2.409zm5.487-7.41c-1.629-.04-2.688.858-3.154 1.386-.402.457-.617.91-.688 1.06-.169.359-.309.77-.41 1.074-.231.69-.61 1.91-1.235 3.89l7.629 2.409c.652-2.066.99-3.157 1.193-3.764.116-.345.121-.33.062-.204-.016.034-.185.411-.547.822a3.893 3.893 0 01-1.082.857 3.946 3.946 0 01-1.958.467L20.137 1zm1.46.332c.499.186.877.468.76.388a4.418 4.418 0 00-.49-.288A4.076 4.076 0 0020.137 1l-.19 8a3.924 3.924 0 01-2.085-.659c-.034-.023.094.066.23.147.157.094.397.226.706.341l2.8-7.494zm5.44 19.876c5.763-6.782 2.721-16.828-5.44-19.876l-2.799 7.494c3.292 1.23 4.093 4.907 2.143 7.201l6.096 5.18zm-.323.38l.323-.38-6.096-5.18-.323.38 6.096 5.18zm-5.203 1.4l2.138.01.034-8-2.138-.01-.034 8zm-2.137-.008l2.137.009.034-8-2.137-.01-.034 8zm-4.1-4.052l.219.95 7.796-1.797-.22-.95-7.795 1.797zm-.219-.95l.219.95 7.796-1.796-.22-.95-7.795 1.796zm2.521-4.657l-.127.052 3.008 7.413.127-.052-3.008-7.413zm1.028-2.426c.345 1.197-.207 2.093-1.029 2.427l3.01 7.412c4.838-1.964 7.118-7.16 5.706-12.056l-7.687 2.217zm5.808-.562a3.895 3.895 0 01-3.66 1.565 3.691 3.691 0 01-1.737-.702 2.826 2.826 0 01-.418-.381c-.058-.066-.086-.107-.089-.11-.004-.006.023.034.058.104.034.071.044.106.038.086L26.29 8.68a8.969 8.969 0 00-1.23-2.562 5.762 5.762 0 00-1.226-1.305 4.311 4.311 0 00-2.024-.842 4.1 4.1 0 00-3.863 1.65l6.464 4.714zm-1.884 6.755a394.163 394.163 0 011.657-5.485c.22-.707.4-1.266.527-1.649.065-.195.108-.317.13-.38a3.305 3.305 0 01-.087.192 3.677 3.677 0 01-.343.567l-6.464-4.713c-.216.296-.344.56-.373.619a4.814 4.814 0 00-.116.255 7.52 7.52 0 00-.123.316c-.066.177-.139.39-.213.614-.152.455-.349 1.07-.575 1.797a401.866 401.866 0 00-1.693 5.602l7.673 2.265zm-.797 2.697l.796-2.697-7.672-2.265-.796 2.697 7.672 2.265zm-.092.311l.092-.31-7.672-2.267-.092.31 7.672 2.267zm-4.636 2.866h.8v-8h-.8v8zm-.801 0h.8v-8h-.8v8zm-4.023-3.5l.185.627 7.676-2.254-.185-.628-7.675 2.254zm-2.585-9.129c-.216-.296-.337-.554-.351-.583-.04-.08-.064-.14-.071-.157-.015-.037-.016-.042.002.008.033.091.088.253.17.5.16.485.383 1.194.662 2.1a606.393 606.393 0 012.174 7.26l7.675-2.254a611.314 611.314 0 00-2.204-7.362c-.284-.922-.525-1.686-.707-2.242-.09-.273-.175-.524-.249-.728a8.234 8.234 0 00-.133-.346 4.915 4.915 0 00-.119-.265c-.028-.057-.16-.335-.385-.644l-6.464 4.713zm5.808.562c-.006.02.004-.015.038-.086.035-.07.061-.11.058-.105a1.305 1.305 0 01-.09.111 2.82 2.82 0 01-.417.38 3.691 3.691 0 01-1.738.703 3.891 3.891 0 01-3.66-1.565l6.465-4.714a4.1 4.1 0 00-3.863-1.65 4.31 4.31 0 00-2.024.842c-.605.457-1.016 1.004-1.227 1.305A8.97 8.97 0 007.715 8.68l7.687 2.217zm1.028 2.427c-.82-.334-1.373-1.23-1.028-2.427L7.715 8.68c-1.412 4.895.868 10.092 5.706 12.056l3.01-7.412zm.127.051l-.127-.052-3.008 7.413.127.052 3.008-7.413zm2.175 5.555l.219-.95-7.796-1.797-.219.95 7.796 1.797zm-.22.95l.22-.95-7.796-1.797-.219.95 7.796 1.797zm-6.017 3.11l2.137-.008-.034-8-2.138.009.035 8zm-2.138.01l2.138-.01-.034-8-2.138.01.034 8zm-3.388-1.79l.323.38 6.096-5.18-.323-.38-6.096 5.18z" mask="url(#ka)"/></g><defs><filter id="ka" x="0" y="0" width="34" height="34" filterUnits="userSpaceOnUse" color-interpolation-filters="sRGB"><feFlood flood-opacity="0" result="BackgroundImageFix"/><feColorMatrix in="SourceAlpha" values="0 0 0 0 0 0 0 0 0 0 0 0 0 0 0 0 0 0 127 0" result="hardAlpha"/><feOffset dy="4"/><feGaussianBlur stdDeviation="2"/><feComposite in2="hardAlpha" operator="out"/><feColorMatrix values="0 0 0 0 0 0 0 0 0 0 0 0 0 0 0 0 0 0 0.25 0"/><feBlend in2="BackgroundImageFix" result="effect1_dropShadow_21_1355"/><feBlend in="SourceGraphic" in2="effect1_dropShadow_21_1355" result="shape"/></filter></defs></svg></svg>