<?xml version="1.0" encoding="utf-8"?>
<!-- Generator: Adobe Illustrator 24.1.2, SVG Export Plug-In . SVG Version: 6.00 Build 0)  -->
<svg version="1.0" id="Layer_1" xmlns="http://www.w3.org/2000/svg" xmlns:xlink="http://www.w3.org/1999/xlink" x="0px" y="0px"
	 width="30px" height="30px" viewBox="0 0 30 30" style="enable-background:new 0 0 30 30;" xml:space="preserve">
<style type="text/css">
	.st0{fill:url(#SVGID_1_);}
</style>
<linearGradient id="SVGID_1_" gradientUnits="userSpaceOnUse" x1="0.2857" y1="0.2857" x2="29.1796" y2="29.1796" gradientTransform="matrix(1 0 0 -1 0 30)">
	<stop  offset="0" style="stop-color:#2081C7"/>
	<stop  offset="1" style="stop-color:#38AFE2"/>
</linearGradient>
<path class="st0" d="M15,0.3C6.9,0.3,0.3,6.9,0.3,15S6.9,29.7,15,29.7S29.7,23.1,29.7,15S23.1,0.3,15,0.3z M22.6,9.6L20,22.1
	c-0.1,0.5-0.6,0.8-1.1,0.7c-0.1,0-0.3-0.1-0.4-0.2l-3.8-2.8L12.5,22c-0.1,0.1-0.3,0.1-0.4,0c0,0,0,0,0,0l0-0.1l0.4-3.9l7.2-6.6
	c0.1-0.1,0.1-0.2,0-0.3c-0.1-0.1-0.2-0.1-0.2,0L10.1,17l-4-1.3c-0.3-0.1-0.4-0.4-0.3-0.7c0.1-0.2,0.2-0.3,0.3-0.3l15.5-5.9
	c0.4-0.1,0.8,0,0.9,0.4C22.7,9.3,22.7,9.5,22.6,9.6z"/>
</svg>
