<svg width="31" height="30" viewBox="0 0 31 30" fill="none" xmlns="http://www.w3.org/2000/svg">
<g clip-path="url(#clip0_122_116)">
<path d="M15.5361 0C23.8191 0 30.5361 6.717 30.5361 15C30.5361 23.283 23.8191 30 15.5361 30C7.25313 30 0.536133 23.283 0.536133 15C0.536133 6.717 7.25313 0 15.5361 0Z" fill="#1DA1F2"/>
<path d="M12.056 22.6198C19.13 22.6198 23.003 16.7578 23.003 11.6728C23.003 11.5078 23.003 11.3398 22.991 11.1748C23.744 10.6288 24.395 9.95678 24.911 9.18278C24.209 9.49478 23.465 9.69878 22.703 9.78878C23.507 9.30878 24.107 8.55278 24.395 7.66178C23.639 8.10878 22.814 8.42678 21.953 8.59478C20.495 7.04678 18.059 6.97178 16.511 8.42678C15.512 9.36578 15.089 10.7668 15.398 12.1018C12.305 11.9458 9.42199 10.4848 7.46899 8.08178C6.44899 9.83978 6.96799 12.0868 8.65999 13.2178C8.04799 13.1998 7.44799 13.0348 6.91399 12.7378C6.91399 12.7528 6.91399 12.7708 6.91399 12.7858C6.91399 14.6158 8.20399 16.1938 10.001 16.5568C9.43399 16.7098 8.83999 16.7338 8.26399 16.6228C8.76799 18.1888 10.211 19.2628 11.858 19.2958C10.496 20.3668 8.81299 20.9488 7.08199 20.9458C6.77599 20.9458 6.46999 20.9278 6.16699 20.8888C7.91899 22.0198 9.96799 22.6198 12.056 22.6168" fill="white"/>
</g>
<defs>
<clipPath id="clip0_122_116">
<rect width="30" height="30" fill="white" transform="translate(0.536133)"/>
</clipPath>
</defs>
</svg>
