<svg width="31" height="30" viewBox="0 0 31 30" fill="none" xmlns="http://www.w3.org/2000/svg">
<g clip-path="url(#clip0_122_123)">
<path d="M15.8931 30C7.61007 30 0.893066 23.283 0.893066 15C0.893066 6.717 7.61007 0 15.8931 0C24.1761 0 30.8931 6.717 30.8931 15C30.8931 23.283 24.1761 30 15.8931 30Z" fill="#EC3636"/>
<path d="M25.4391 10.173C25.2111 9.30898 24.5361 8.63098 23.6781 8.39998C22.1241 7.97998 15.8961 7.97998 15.8961 7.97998C15.8961 7.97998 9.66511 7.97998 8.11411 8.39998C7.25611 8.63098 6.58111 9.30898 6.35311 10.173C5.93311 11.736 5.93311 15 5.93311 15C5.93311 15 5.93311 18.264 6.35011 19.827C6.57811 20.691 7.25311 21.369 8.11111 21.6C9.66511 22.02 15.8931 22.02 15.8931 22.02C15.8931 22.02 22.1241 22.02 23.6751 21.6C24.5331 21.369 25.2081 20.691 25.4361 19.827C25.8531 18.264 25.8531 15 25.8531 15C25.8531 15 25.8531 11.736 25.4391 10.173ZM13.8561 17.961V12.039L19.0611 15L13.8561 17.961Z" fill="white"/>
</g>
<defs>
<clipPath id="clip0_122_123">
<rect width="30" height="30" fill="white" transform="translate(0.893066)"/>
</clipPath>
</defs>
</svg>
